<?xml version="1.0" standalone="no"?>
<!DOCTYPE svg PUBLIC "-//W3C//DTD SVG 20010904//EN"
 "http://www.w3.org/TR/2001/REC-SVG-20010904/DTD/svg10.dtd">
<svg version="1.0" xmlns="http://www.w3.org/2000/svg"
 width="508.000000pt" height="508.000000pt" viewBox="0 0 508.000000 508.000000"
 preserveAspectRatio="xMidYMid meet">
<metadata>
Created by potrace 1.14, written by Peter Selinger 2001-2017
</metadata>
<g transform="translate(0.000000,508.000000) scale(0.100000,-0.100000)"
fill="#000000" stroke="none">
<path d="M2410 5059 c0 -4 -8 -8 -17 -8 -33 1 -71 -14 -123 -46 -19 -12 -39
-24 -45 -26 -5 -2 -27 -24 -50 -49 -22 -24 -46 -51 -52 -58 -7 -7 -13 -18 -13
-24 0 -6 -2 -9 -5 -6 -3 2 -145 -134 -316 -304 -171 -169 -315 -308 -320 -308
-5 0 -9 -4 -9 -10 0 -13 -48 -59 -54 -52 -3 3 -6 1 -6 -5 0 -5 -29 -39 -65
-75 -36 -36 -65 -64 -65 -62 0 2 -20 -17 -45 -43 -25 -25 -45 -50 -45 -56 0
-6 -3 -8 -6 -5 -7 7 -74 -59 -74 -72 0 -6 -3 -9 -8 -8 -4 2 -40 -30 -79 -69
-40 -40 -77 -73 -83 -73 -5 0 -9 -4 -8 -8 3 -9 -81 -92 -94 -92 -5 0 -7 -4 -3
-10 3 -5 -7 -16 -22 -24 -15 -8 -25 -15 -21 -16 9 0 -16 -26 -56 -57 -16 -13
-26 -23 -22 -23 4 0 -5 -11 -20 -25 -15 -14 -31 -25 -36 -25 -5 0 -6 -4 -3
-10 3 -5 -1 -10 -9 -10 -8 0 -18 -9 -21 -20 -3 -11 -9 -20 -13 -20 -4 0 -85
-76 -181 -170 -95 -93 -171 -170 -167 -170 3 0 -3 -9 -14 -20 -11 -11 -20 -27
-20 -36 0 -8 -4 -13 -9 -10 -7 5 -18 -24 -26 -69 -1 -5 -5 -18 -10 -27 -7 -18
-2 -117 9 -173 4 -16 7 -36 8 -42 1 -7 5 -13 8 -13 4 0 13 -13 19 -29 14 -33
104 -131 120 -131 6 0 11 -4 11 -10 0 -5 7 -10 15 -10 8 0 15 -5 15 -12 0 -6
3 -8 6 -5 4 4 20 -3 35 -14 16 -11 29 -18 29 -15 0 3 12 1 27 -5 49 -19 66
-21 208 -24 77 -2 144 -4 149 -4 4 -1 6 -8 3 -16 -4 -8 -2 -17 3 -20 7 -4 6
-13 0 -26 -8 -14 -7 -19 1 -19 8 0 8 -4 -1 -15 -10 -12 -10 -15 0 -15 10 0 10
-3 0 -15 -10 -12 -10 -15 0 -15 10 0 10 -3 0 -15 -6 -8 -8 -20 -4 -27 10 -16
13 -48 4 -48 -8 0 -5 -48 3 -57 4 -3 2 -12 -4 -20 -9 -10 -8 -13 1 -13 10 0
10 -3 0 -15 -10 -12 -10 -15 0 -15 10 0 10 -3 1 -14 -8 -10 -9 -16 -1 -21 7
-4 7 -12 0 -26 -8 -14 -7 -19 1 -19 9 0 9 -3 0 -14 -8 -10 -9 -16 -1 -21 7 -4
7 -12 0 -26 -8 -14 -7 -19 1 -19 9 0 9 -3 0 -14 -8 -10 -9 -16 -1 -21 7 -4 7
-12 0 -26 -8 -14 -7 -19 1 -19 9 0 9 -3 0 -14 -8 -10 -9 -16 -1 -21 7 -4 7
-12 0 -25 -7 -13 -7 -21 0 -25 7 -4 7 -13 0 -26 -8 -14 -7 -19 2 -19 8 0 9 -3
1 -11 -6 -6 -8 -23 -3 -45 5 -19 4 -32 -1 -28 -11 6 -12 -9 -2 -20 9 -9 11
-46 3 -46 -8 0 -6 -37 3 -46 3 -4 2 -15 -4 -25 -7 -14 -6 -19 3 -19 10 0 10
-2 -1 -9 -9 -6 -10 -10 -2 -16 9 -5 9 -10 1 -20 -8 -10 -8 -15 0 -20 8 -5 8
-10 0 -20 -8 -10 -8 -15 0 -20 8 -5 8 -10 0 -20 -8 -9 -8 -15 0 -20 7 -4 7
-12 0 -25 -7 -13 -7 -21 0 -25 7 -4 7 -13 0 -26 -8 -14 -7 -19 1 -19 9 0 9 -3
0 -14 -8 -10 -9 -16 -1 -21 6 -4 7 -13 2 -23 -7 -15 -8 -37 -2 -44 5 -7 6 -48
0 -48 -8 0 -6 -37 3 -46 3 -4 2 -15 -4 -25 -7 -14 -6 -19 2 -19 9 0 9 -3 0
-14 -8 -10 -9 -16 -1 -21 7 -4 7 -12 0 -26 -8 -13 -7 -19 0 -19 6 0 8 -5 4
-12 -11 -18 -11 -62 1 -70 6 -5 5 -8 -3 -8 -8 0 -10 -5 -6 -12 10 -16 13 -48
4 -48 -8 0 -6 -32 3 -47 4 -6 3 -14 -3 -18 -6 -4 -7 -12 -3 -18 11 -17 13 -37
4 -37 -10 0 -7 -31 4 -50 5 -9 4 -15 -3 -18 -7 -2 -9 -9 -5 -15 3 -6 7 -32 9
-58 1 -26 7 -57 14 -68 6 -12 8 -21 5 -21 -8 0 47 -94 57 -98 4 -2 8 -9 8 -15
0 -7 20 -32 45 -56 25 -24 45 -41 45 -38 0 4 10 -2 23 -13 12 -10 25 -18 28
-17 4 1 17 -7 29 -18 12 -11 24 -19 26 -17 2 2 21 -2 42 -9 50 -15 317 -22
341 -9 14 7 21 6 24 -3 3 -9 7 -9 20 2 14 11 17 11 17 0 0 -11 2 -11 10 1 8
12 10 12 10 1 0 -11 3 -11 15 -1 11 9 15 9 15 1 0 -8 5 -9 18 -2 11 6 24 6 32
1 8 -5 19 -5 25 0 16 13 27 13 36 -2 7 -10 9 -10 9 2 0 13 1 13 10 0 6 -10 10
-11 10 -3 0 9 7 10 25 3 14 -5 25 -6 25 -1 0 11 33 9 42 -3 4 -6 12 -5 21 3
11 8 16 9 19 1 2 -8 11 -8 30 -1 19 7 28 7 32 -2 5 -9 7 -9 12 1 3 6 10 10 15
6 5 -3 9 3 10 13 0 10 3 31 5 46 4 21 2 27 -8 22 -7 -4 -4 1 6 9 11 9 15 16
10 16 -5 0 -10 9 -11 20 -1 11 4 20 10 20 8 0 8 3 2 8 -14 9 -13 95 0 104 7 5
7 8 0 8 -14 0 -14 63 0 72 7 5 7 8 0 8 -15 0 -16 40 -2 40 8 0 8 3 2 8 -14 9
-13 95 0 104 6 5 6 8 -2 8 -14 0 -12 52 2 62 7 5 6 8 0 8 -6 0 -11 22 -11 49
0 32 4 47 10 43 6 -3 5 2 -3 11 -11 14 -11 17 0 17 9 0 10 3 3 8 -13 9 -14 42
-1 42 5 0 4 7 -4 16 -10 13 -10 17 2 25 8 5 9 9 3 9 -11 0 -12 79 -1 98 4 6 3
13 -2 16 -10 7 -9 25 2 43 4 6 4 14 -1 17 -10 6 -9 67 1 84 4 6 3 13 -2 16
-10 7 -9 25 2 42 3 6 3 14 -1 18 -11 12 -9 76 2 76 6 0 5 4 -2 9 -17 10 -17
22 -1 32 10 6 10 11 0 22 -8 11 -9 17 -1 22 8 5 8 11 1 19 -7 9 -7 16 1 24 8
8 9 12 1 12 -12 0 -12 18 0 37 4 6 3 14 -2 18 -13 7 -10 45 4 45 5 0 4 4 -3 9
-8 4 -14 12 -14 16 0 4 6 12 14 16 11 7 10 11 -1 18 -12 8 -12 12 -2 25 8 9 9
16 4 16 -5 0 -9 9 -10 20 -1 12 3 18 9 14 6 -4 6 2 -1 15 -9 16 -9 21 1 21 10
0 10 2 -1 9 -10 6 -11 13 -2 29 7 14 8 23 1 27 -6 4 -8 11 -4 16 3 5 10 7 15
4 5 -4 9 0 9 7 0 9 3 9 10 -2 5 -8 10 -10 10 -5 0 6 16 10 35 10 19 0 35 -4
35 -9 0 -6 7 -1 15 10 15 18 15 18 8 0 -5 -14 -3 -17 7 -11 18 11 130 12 130
1 0 -6 7 -1 15 10 15 18 15 18 8 0 -5 -14 -3 -17 6 -11 20 11 230 12 235 0 3
-7 5 -7 5 0 1 11 82 12 100 1 6 -4 11 -3 11 2 0 13 33 10 42 -3 5 -7 8 -7 8 0
0 6 13 10 30 11 17 1 27 -3 23 -9 -4 -6 -1 -7 7 -2 8 5 34 8 58 6 28 -1 42 2
37 8 -3 7 0 8 9 5 9 -3 13 -11 9 -17 -4 -6 -1 -7 8 -2 15 10 163 10 179 0 6
-3 9 -19 8 -33 -1 -15 2 -34 7 -41 5 -10 4 -12 -3 -7 -13 8 -12 -40 1 -61 4
-6 0 -14 -9 -17 -9 -4 -12 -11 -7 -18 4 -7 9 -48 10 -91 1 -58 -1 -76 -10 -71
-7 4 -3 -2 7 -14 11 -12 14 -22 8 -22 -7 0 -9 -18 -5 -50 4 -37 2 -50 -8 -50
-8 0 -5 -6 7 -16 10 -8 14 -13 8 -10 -7 3 -11 -4 -11 -19 0 -14 4 -22 9 -19 6
4 6 -1 0 -12 -13 -24 -13 -36 0 -52 6 -6 6 -12 1 -12 -11 0 -11 -130 0 -147 5
-7 4 -13 0 -13 -5 0 -9 -27 -9 -60 1 -33 6 -60 11 -60 6 0 3 -5 -5 -10 -13 -9
-13 -11 0 -20 8 -5 10 -10 4 -10 -12 0 -11 -140 1 -160 5 -8 4 -11 -2 -7 -11
7 -10 -84 1 -102 4 -6 3 -11 -3 -11 -6 0 -7 -20 -4 -50 4 -38 2 -50 -8 -51 -8
0 -5 -4 6 -9 11 -5 15 -9 8 -9 -8 -1 -10 -15 -6 -47 4 -38 3 -45 -8 -39 -8 5
-6 -1 4 -12 11 -13 14 -23 8 -27 -10 -6 -8 -37 4 -55 3 -5 0 -13 -6 -17 -8 -5
-9 -3 -4 6 5 9 4 11 -4 6 -8 -5 -9 -12 -3 -19 5 -7 9 -34 8 -62 -1 -27 3 -56
8 -62 5 -9 4 -13 -5 -13 -8 0 -6 -6 7 -16 10 -8 13 -12 5 -8 -10 5 -12 3 -7
-5 6 -9 11 -9 22 0 11 9 14 8 14 -2 0 -12 2 -12 9 0 7 11 9 11 13 0 4 -12 8
-12 20 -1 12 10 17 10 20 1 3 -9 9 -9 26 0 15 8 22 8 22 1 0 -7 7 -7 21 1 17
8 23 8 30 -2 6 -10 11 -10 25 2 20 16 24 16 35 -3 7 -10 9 -10 9 2 0 13 1 13
10 0 6 -10 10 -11 10 -3 0 9 7 10 25 3 14 -5 25 -6 25 -1 0 11 33 9 42 -3 4
-6 13 -4 22 3 10 8 16 9 16 3 0 -14 370 -13 388 1 6 5 12 6 12 3 0 -4 10 0 21
8 12 8 28 12 35 9 8 -3 14 0 14 6 0 6 3 10 8 9 4 -1 27 11 52 27 42 27 66 49
115 106 22 26 60 98 60 114 0 6 5 16 12 23 6 6 10 24 7 38 -3 14 -1 23 4 20 6
-3 10 388 10 965 0 534 3 973 5 976 10 9 57 10 57 1 0 -5 5 -6 11 -3 6 4 54 9
107 11 113 4 135 6 142 16 3 4 21 10 40 13 19 3 37 10 40 14 3 5 15 11 28 15
12 4 22 12 22 17 0 6 4 8 9 5 14 -9 95 75 136 138 20 31 33 56 30 56 -3 0 -2
8 4 18 5 9 12 39 15 66 4 27 9 53 12 58 3 4 -1 8 -8 8 -9 0 -9 3 2 10 8 5 11
10 5 10 -5 0 -11 16 -12 37 -1 20 -6 39 -11 42 -5 3 -8 14 -6 24 1 10 -4 21
-12 24 -8 3 -14 14 -14 24 0 10 -4 19 -10 19 -5 0 -10 5 -10 11 0 6 -22 34
-50 62 -27 28 -50 55 -50 59 0 5 -5 8 -10 8 -14 0 -119 107 -112 114 3 3 0 6
-6 6 -6 0 -105 93 -220 208 -171 169 -210 213 -214 240 -2 17 -1 32 3 32 4 0
4 14 -1 30 -5 17 -5 30 0 30 5 0 5 13 0 30 -5 17 -5 30 0 30 5 0 5 13 0 30 -5
17 -5 30 0 30 5 0 5 13 0 30 -5 17 -5 30 0 30 5 0 5 13 0 30 -5 17 -5 30 0 30
5 0 5 13 0 30 -5 17 -6 30 -2 30 4 0 5 81 2 180 -3 99 -2 180 2 180 4 0 3 14
-2 30 -5 19 -5 30 1 30 6 0 7 4 4 10 -3 5 -8 23 -10 39 -5 45 -15 71 -26 71
-6 0 -8 4 -5 8 7 11 -58 81 -103 112 -19 13 -31 19 -28 13 4 -7 -6 -5 -23 4
-17 8 -37 12 -45 9 -8 -3 -17 0 -21 6 -4 7 -9 6 -15 -3 -5 -8 -9 -9 -9 -4 0 6
-20 10 -47 9 -27 -1 -48 -3 -48 -4 0 -3 -25 -7 -62 -12 -13 -1 -23 -7 -23 -12
0 -5 -3 -7 -6 -3 -12 11 -114 -86 -114 -109 0 -8 -4 -14 -9 -14 -15 0 -24 -62
-27 -190 -3 -184 1 -170 -33 -135 -16 17 -71 72 -124 123 -52 50 -93 92 -90
92 2 0 -10 12 -28 28 -47 38 -89 83 -89 94 0 5 -3 7 -7 5 -5 -3 -72 60 -150
139 -78 79 -140 144 -137 144 3 0 -9 12 -28 28 -18 15 -35 30 -36 35 -2 4 -8
5 -13 1 -5 -3 -9 -1 -9 4 0 9 -37 25 -52 23 -5 -1 -8 4 -8 10 0 5 -4 7 -10 4
-5 -3 -10 -1 -10 6 0 7 -3 9 -6 6 -4 -3 -16 -1 -27 5 -24 12 -267 19 -267 7z"/>
</g>
</svg>
